<?xml version="1.0" encoding="utf-8"?>
<!-- Generator: Adobe Illustrator 19.2.1, SVG Export Plug-In . SVG Version: 6.00 Build 0)  -->
<svg version="1.1" id="layer" xmlns="http://www.w3.org/2000/svg" xmlns:xlink="http://www.w3.org/1999/xlink" x="0px" y="0px"
	 viewBox="0 0 652 652" style="enable-background:new 0 0 652 652;" xml:space="preserve">
<style type="text/css">
	.st0{fill:#FF6161;}
</style>
<path class="st0" d="M60,343.6v16.2L21.1,321l8.1-8.1L60,343.6z M76.2,359.9H60l38.9,38.9l8.1-8.1L76.2,359.9z M168.5,329.1l8.1-8.1
	l-77.7-77.7l-8.1,8.1l30.8,30.8h-18.6l-21.5-21.4l-8.1,8.1l13.3,13.3h-9.3v60.3h60.3v-9.3l13.3,13.3l8.1-8.1L137.7,317v-18.6
	L168.5,329.1z M64,278.1l-8.1,8.1l8.7,8.7l8.1-8.1L64,278.1z M133.1,347.1l-8.1,8.1l8.7,8.7l8.1-8.1L133.1,347.1z M46.6,295.5
	l-8.1,8.1L60,325.1v-16.2L46.6,295.5z M111,359.9H94.8l21.5,21.5l8.1-8.1L111,359.9z"/>
<path d="M610.5,359.8c-5.2,0-9.3-1.4-12.3-4.3s-4.4-6.8-4.4-11.8v-31.1h-9.4v-11.6h9.4l1.7-15.5h11.1v15.5h14.4v11.7h-14.4V342
	c0,1.6,0.6,3.2,1.7,4.3c0.6,0.6,1.2,1.1,2,1.4c0.8,0.3,1.6,0.5,2.4,0.4h8.4v11.7H610.5z M554,360.9c-7,0-12.6-1.7-16.8-5
	c-4.2-3.3-7.1-8-8.2-13.3h13.9c0.6,2,2,3.7,3.8,4.8c2.2,1.3,4.8,1.9,7.3,1.8c7.4,0,11.1-2.1,11.1-6.1c0-2-1.2-3.5-3.5-4.6
	c-2.7-1.2-5.5-2-8.4-2.5c-3.3-0.6-6.6-1.5-10-2.4c-3.3-1-6.3-3-8.5-5.7c-2.3-2.8-3.5-6.4-3.5-10.9c0-2.4,0.5-4.7,1.5-6.8
	c1-2.1,2.5-4,4.4-5.5c3.9-3.3,9.4-4.9,16.3-4.9c7,0,12.5,1.6,16.6,4.7c4.1,3.1,6.9,7.6,7.9,12.6H564c-1.5-3.7-5-5.6-10.5-5.6
	c-5.9,0-8.9,1.9-8.9,5.6c0,0.9,0.2,1.7,0.7,2.4c0.4,0.7,1.1,1.3,1.8,1.7c1.9,1.1,4,1.9,6.2,2.2c2.8,0.5,5.5,1.1,8.2,1.9
	c2.8,0.8,5.5,1.8,8.2,2.9c2.6,1.2,4.8,3.1,6.3,5.5c1.8,2.8,2.6,6.1,2.5,9.4c0.1,2.5-0.5,4.9-1.6,7.1c-1.1,2.2-2.7,4.2-4.7,5.6
	C568.1,359.2,562,360.9,554,360.9z M512.7,305.7c-4.3-3.8-10.3-5.8-18-5.8c-6.1,0-11.3,1.7-15.5,5c-4.1,3.2-7,7.7-8.2,12.8h13.1
	c0.7-1.9,1.9-3.6,3.6-4.7c2-1.4,4.5-2.1,6.9-2c3.6,0,6.4,0.9,8.5,2.8c1.1,1,1.9,2.2,2.4,3.5c0.5,1.3,0.8,2.8,0.7,4.2v2.8h-15
	c-6.9,0-12.3,1.7-16.3,5.2c-1.9,1.6-3.4,3.6-4.4,5.9c-1,2.3-1.5,4.7-1.5,7.2c-0.1,2.5,0.4,4.9,1.3,7.2s2.4,4.3,4.2,6
	c3.6,3.5,8.5,5.2,14.5,5.2c3.7,0.1,7.4-0.8,10.7-2.5c2.7-1.3,4.9-3.3,6.5-5.8h0.5l1.1,7.3h11.1v-38.3
	C519.1,314.9,516.9,309.6,512.7,305.7z M506.4,337.1c0.1,1.7-0.2,3.5-0.9,5.1c-0.7,1.6-1.7,3.1-3,4.2c-2.6,2.3-6.1,3.4-10.6,3.4
	c-3.2,0-5.7-0.7-7.4-2.2c-0.8-0.7-1.5-1.5-1.9-2.5c-0.4-1-0.7-2-0.6-3.1c0-5.2,3.4-7.8,10-7.8h14.4V337.1z M435.8,361
	c-8.4,0-15.2-2.7-20.2-8.1c-5-5.4-7.6-12.9-7.6-22.4c0-9.5,2.5-17,7.5-22.4c5-5.4,11.8-8.1,20.2-8.1c6.9,0,12.6,1.8,17.1,5.5
	c4.4,3.5,7.6,8.4,9,13.9h-12.7c-1.2-2.4-3.2-4.5-5.5-5.8c-2.4-1.4-5.1-2-7.8-1.9c-2.1-0.1-4.1,0.3-6,1.2c-1.9,0.9-3.6,2.1-4.9,3.7
	c-2.8,3.3-4.1,7.9-4.1,13.9c0,6,1.4,10.6,4.1,13.9c1.3,1.6,3,2.9,4.9,3.8c1.9,0.9,4,1.3,6,1.2c2.7,0.1,5.4-0.6,7.8-1.9
	c2.4-1.4,4.3-3.4,5.5-5.8h12.7c-1.4,5.5-4.6,10.4-9,13.9C448.4,359.2,442.7,361,435.8,361z M360.8,382.1l8.9-22.2l-23.8-58.8h13.9
	l16.1,41.6h0.5l16.1-41.6h13.9l-32.2,81.1H360.8z M333.8,305.7c-4.3-3.8-10.3-5.8-18-5.8c-6.1,0-11.3,1.6-15.5,5
	c-4.1,3.2-7,7.7-8.2,12.8h13.1c0.7-1.9,1.9-3.6,3.6-4.7c2-1.4,4.5-2.1,6.9-2c3.6,0,6.5,0.9,8.5,2.8c1.1,1,1.9,2.2,2.4,3.5
	c0.5,1.3,0.8,2.8,0.7,4.2v2.8h-15c-6.9,0-12.3,1.7-16.3,5.2c-1.9,1.6-3.4,3.6-4.4,5.9c-1,2.3-1.5,4.7-1.5,7.2
	c-0.1,2.5,0.4,4.9,1.3,7.2c0.9,2.3,2.4,4.3,4.2,6c3.6,3.5,8.5,5.2,14.5,5.2c3.7,0.1,7.4-0.8,10.7-2.5c2.7-1.3,4.9-3.3,6.5-5.8h0.5
	l1.1,7.3h11.1v-38.3C340.2,314.9,338.1,309.6,333.8,305.7z M327.5,337.1c0.1,1.7-0.2,3.5-0.9,5.1c-0.7,1.6-1.7,3.1-3,4.2
	c-2.6,2.3-6.1,3.4-10.6,3.4c-3.2,0-5.7-0.7-7.4-2.2c-0.8-0.7-1.5-1.5-1.9-2.5c-0.4-1-0.7-2-0.6-3.1c0-5.2,3.4-7.7,10-7.8h14.4V337.1
	z M261.8,330.5c2-0.5,3.9-1.3,5.7-2.2c2.1-1.2,4.1-2.5,5.9-4.1c2.2-2,3.9-4.5,4.9-7.3c1.3-3.2,1.9-6.7,1.8-10.2
	c0-7.4-2.4-13.3-7.1-17.8c-4.7-4.5-10.9-6.7-18.4-6.7h-32.2v77.7h13.9v-28.8h10.5l20,28.8h15.5L261.8,330.5z M236.3,318.8v-24.4
	h17.2c3.9,0,7,1.1,9.3,3.2c2.3,2.1,3.4,5.1,3.4,9c0,3.8-1.2,6.8-3.5,9c-2.5,2.2-5.8,3.4-9.2,3.2H236.3z"/>
</svg>
